<?xml version="1.0" encoding="iso-8859-1"?>
<!-- Uploaded to: SVG Repo, www.svgrepo.com, Generator: SVG Repo Mixer Tools -->
<svg fill="#FFFFFF" height="800px" width="800px" version="1.1" id="Capa_1" xmlns="http://www.w3.org/2000/svg" xmlns:xlink="http://www.w3.org/1999/xlink" 
	 viewBox="0 0 463 463" xml:space="preserve">
<g>
	<path d="M395.195,67.805C351.471,24.08,293.336,0,231.5,0S111.529,24.08,67.805,67.805S0,169.664,0,231.5
		s24.08,119.971,67.805,163.695S169.664,463,231.5,463s119.971-24.08,163.695-67.805S463,293.336,463,231.5
		S438.92,111.529,395.195,67.805z M384.589,384.589C343.697,425.48,289.329,448,231.5,448s-112.197-22.52-153.089-63.411
		S15,289.329,15,231.5S37.52,119.303,78.411,78.411S173.671,15,231.5,15s112.197,22.52,153.089,63.411S448,173.671,448,231.5
		S425.48,343.697,384.589,384.589z"/>
	<path d="M200,231.5c0,17.369,14.131,31.5,31.5,31.5s31.5-14.131,31.5-31.5S248.869,200,231.5,200S200,214.131,200,231.5z
		 M231.5,215c9.098,0,16.5,7.402,16.5,16.5s-7.402,16.5-16.5,16.5s-16.5-7.402-16.5-16.5S222.402,215,231.5,215z"/>
	<path d="M265.974,276.21c-0.995-1.724-2.635-2.981-4.558-3.495c-1.921-0.514-3.97-0.244-5.693,0.754
		C248.338,277.741,239.962,280,231.5,280s-16.838-2.258-24.223-6.531c-1.723-0.996-3.772-1.269-5.693-0.753
		c-1.923,0.514-3.563,1.771-4.558,3.495l-68.01,117.796c-2.069,3.585-0.844,8.169,2.739,10.241
		C162.003,421.749,196.493,431,231.5,431s69.497-9.251,99.744-26.752c3.583-2.072,4.809-6.656,2.739-10.241L265.974,276.21z
		 M231.5,416c-29.867,0-59.326-7.28-85.67-21.115l60.655-105.057c7.896,3.398,16.419,5.172,25.015,5.172s17.118-1.773,25.015-5.173
		l60.655,105.058C290.826,408.72,261.367,416,231.5,416z"/>
	<path d="M403.472,130.365c-17.471-29.618-42.446-54.381-72.226-71.611c-1.723-0.998-3.771-1.269-5.693-0.754
		c-1.923,0.514-3.563,1.771-4.558,3.495l-68.011,117.796c-2.069,3.584-0.844,8.168,2.738,10.241
		C270.697,198.199,280,214.28,280,231.5c0,4.143,3.357,7.5,7.5,7.5h136c4.143,0,7.5-3.357,7.5-7.5
		C431,195.867,421.48,160.896,403.472,130.365z M294.55,224c-2.068-17.182-11.16-32.901-25.052-43.313l60.657-105.059
		c24.722,15.683,45.507,37.115,60.396,62.357c15.384,26.078,24.065,55.669,25.296,86.014H294.55z"/>
	<path d="M183,231.5c0-17.222,9.303-33.303,24.277-41.969c3.582-2.073,4.808-6.656,2.738-10.241l-68.01-117.796
		c-0.995-1.724-2.635-2.981-4.558-3.495c-1.921-0.514-3.97-0.243-5.693,0.754C101.976,75.982,77,100.745,59.528,130.364
		C41.52,160.895,32,195.866,32,231.5c0,4.143,3.357,7.5,7.5,7.5h136C179.643,239,183,235.643,183,231.5z M47.152,224
		c1.23-30.346,9.912-59.937,25.296-86.015c14.89-25.243,35.676-46.676,60.397-62.357l60.655,105.059
		c-13.891,10.41-22.982,26.131-25.051,43.313H47.152z"/>
</g>
</svg>